# Wavefront OBJ file automatically generated by Tiled2Unity

# Vertices (Count = 176)
v 0 -0.639999985694885 0
v -0.639999985694885 -0.639999985694885 0
v -0.639999985694885 0 0
v 0 0 0
v -1.27999997138977 -0.639999985694885 0
v -1.27999997138977 0 0
v -1.91999995708466 -0.639999985694885 0
v -1.91999995708466 0 0
v -2.55999994277954 -0.639999985694885 0
v -2.55999994277954 0 0
v -3.19999980926514 -0.639999985694885 0
v -3.19999980926514 0 0
v -3.83999991416931 -0.639999985694885 0
v -3.83999991416931 0 0
v -4.48000001907349 -0.639999985694885 0
v -4.48000001907349 0 0
v -5.11999988555908 -0.639999985694885 0
v -5.11999988555908 0 0
v -5.75999975204468 -0.639999985694885 0
v -5.75999975204468 0 0
v -6.39999961853027 -0.639999985694885 0
v -6.39999961853027 0 0
v -7.03999996185303 -0.639999985694885 0
v -7.03999996185303 0 0
v -7.67999982833862 -0.639999985694885 0
v -7.67999982833862 0 0
v -8.31999969482422 -0.639999985694885 0
v -8.31999969482422 0 0
v -8.96000003814697 -0.639999985694885 0
v -8.96000003814697 0 0
v -9.59999942779541 -0.639999985694885 0
v -9.59999942779541 0 0
v 0 -1.27999997138977 0
v -0.639999985694885 -1.27999997138977 0
v -1.27999997138977 -1.27999997138977 0
v -1.91999995708466 -1.27999997138977 0
v -2.55999994277954 -1.27999997138977 0
v -3.19999980926514 -1.27999997138977 0
v -3.83999991416931 -1.27999997138977 0
v -4.48000001907349 -1.27999997138977 0
v -5.11999988555908 -1.27999997138977 0
v -5.75999975204468 -1.27999997138977 0
v -6.39999961853027 -1.27999997138977 0
v -7.03999996185303 -1.27999997138977 0
v -7.67999982833862 -1.27999997138977 0
v -8.31999969482422 -1.27999997138977 0
v -8.96000003814697 -1.27999997138977 0
v -9.59999942779541 -1.27999997138977 0
v 0 -1.91999995708466 0
v -0.639999985694885 -1.91999995708466 0
v -1.27999997138977 -1.91999995708466 0
v -1.91999995708466 -1.91999995708466 0
v -2.55999994277954 -1.91999995708466 0
v -3.19999980926514 -1.91999995708466 0
v -3.83999991416931 -1.91999995708466 0
v -4.48000001907349 -1.91999995708466 0
v -5.11999988555908 -1.91999995708466 0
v -5.75999975204468 -1.91999995708466 0
v -6.39999961853027 -1.91999995708466 0
v -7.03999996185303 -1.91999995708466 0
v -7.67999982833862 -1.91999995708466 0
v -8.31999969482422 -1.91999995708466 0
v -8.96000003814697 -1.91999995708466 0
v -9.59999942779541 -1.91999995708466 0
v 0 -2.55999994277954 0
v -0.639999985694885 -2.55999994277954 0
v -1.27999997138977 -2.55999994277954 0
v -1.91999995708466 -2.55999994277954 0
v -2.55999994277954 -2.55999994277954 0
v -3.19999980926514 -2.55999994277954 0
v -3.83999991416931 -2.55999994277954 0
v -4.48000001907349 -2.55999994277954 0
v -5.11999988555908 -2.55999994277954 0
v -5.75999975204468 -2.55999994277954 0
v -6.39999961853027 -2.55999994277954 0
v -7.03999996185303 -2.55999994277954 0
v -7.67999982833862 -2.55999994277954 0
v -8.31999969482422 -2.55999994277954 0
v -8.96000003814697 -2.55999994277954 0
v -9.59999942779541 -2.55999994277954 0
v 0 -3.19999980926514 0
v -0.639999985694885 -3.19999980926514 0
v -1.27999997138977 -3.19999980926514 0
v -1.91999995708466 -3.19999980926514 0
v -2.55999994277954 -3.19999980926514 0
v -3.19999980926514 -3.19999980926514 0
v -3.83999991416931 -3.19999980926514 0
v -4.48000001907349 -3.19999980926514 0
v -5.11999988555908 -3.19999980926514 0
v -5.75999975204468 -3.19999980926514 0
v -6.39999961853027 -3.19999980926514 0
v -7.03999996185303 -3.19999980926514 0
v -7.67999982833862 -3.19999980926514 0
v -8.31999969482422 -3.19999980926514 0
v -8.96000003814697 -3.19999980926514 0
v -9.59999942779541 -3.19999980926514 0
v 0 -3.83999991416931 0
v -0.639999985694885 -3.83999991416931 0
v -1.27999997138977 -3.83999991416931 0
v -1.91999995708466 -3.83999991416931 0
v -2.55999994277954 -3.83999991416931 0
v -3.19999980926514 -3.83999991416931 0
v -3.83999991416931 -3.83999991416931 0
v -4.48000001907349 -3.83999991416931 0
v -5.11999988555908 -3.83999991416931 0
v -5.75999975204468 -3.83999991416931 0
v -6.39999961853027 -3.83999991416931 0
v -7.03999996185303 -3.83999991416931 0
v -7.67999982833862 -3.83999991416931 0
v -8.31999969482422 -3.83999991416931 0
v -8.96000003814697 -3.83999991416931 0
v -9.59999942779541 -3.83999991416931 0
v 0 -4.48000001907349 0
v -0.639999985694885 -4.48000001907349 0
v -1.27999997138977 -4.48000001907349 0
v -1.91999995708466 -4.48000001907349 0
v -2.55999994277954 -4.48000001907349 0
v -3.19999980926514 -4.48000001907349 0
v -3.83999991416931 -4.48000001907349 0
v -4.48000001907349 -4.48000001907349 0
v -5.11999988555908 -4.48000001907349 0
v -5.75999975204468 -4.48000001907349 0
v -6.39999961853027 -4.48000001907349 0
v -7.03999996185303 -4.48000001907349 0
v -7.67999982833862 -4.48000001907349 0
v -8.31999969482422 -4.48000001907349 0
v -8.96000003814697 -4.48000001907349 0
v -9.59999942779541 -4.48000001907349 0
v 0 -5.11999988555908 0
v -0.639999985694885 -5.11999988555908 0
v -1.27999997138977 -5.11999988555908 0
v -1.91999995708466 -5.11999988555908 0
v -2.55999994277954 -5.11999988555908 0
v -3.19999980926514 -5.11999988555908 0
v -3.83999991416931 -5.11999988555908 0
v -4.48000001907349 -5.11999988555908 0
v -5.11999988555908 -5.11999988555908 0
v -5.75999975204468 -5.11999988555908 0
v -6.39999961853027 -5.11999988555908 0
v -7.03999996185303 -5.11999988555908 0
v -7.67999982833862 -5.11999988555908 0
v -8.31999969482422 -5.11999988555908 0
v -8.96000003814697 -5.11999988555908 0
v -9.59999942779541 -5.11999988555908 0
v 0 -5.75999975204468 0
v -0.639999985694885 -5.75999975204468 0
v -1.27999997138977 -5.75999975204468 0
v -1.91999995708466 -5.75999975204468 0
v -2.55999994277954 -5.75999975204468 0
v -3.19999980926514 -5.75999975204468 0
v -3.83999991416931 -5.75999975204468 0
v -4.48000001907349 -5.75999975204468 0
v -5.11999988555908 -5.75999975204468 0
v -5.75999975204468 -5.75999975204468 0
v -6.39999961853027 -5.75999975204468 0
v -7.03999996185303 -5.75999975204468 0
v -7.67999982833862 -5.75999975204468 0
v -8.31999969482422 -5.75999975204468 0
v -8.96000003814697 -5.75999975204468 0
v -9.59999942779541 -5.75999975204468 0
v 0 -6.39999961853027 0
v -0.639999985694885 -6.39999961853027 0
v -1.27999997138977 -6.39999961853027 0
v -1.91999995708466 -6.39999961853027 0
v -2.55999994277954 -6.39999961853027 0
v -3.19999980926514 -6.39999961853027 0
v -3.83999991416931 -6.39999961853027 0
v -4.48000001907349 -6.39999961853027 0
v -5.11999988555908 -6.39999961853027 0
v -5.75999975204468 -6.39999961853027 0
v -6.39999961853027 -6.39999961853027 0
v -7.03999996185303 -6.39999961853027 0
v -7.67999982833862 -6.39999961853027 0
v -8.31999969482422 -6.39999961853027 0
v -8.96000003814697 -6.39999961853027 0
v -9.59999942779541 -6.39999961853027 0

# Texture Coorindates (Count = 8)
vt 0.0001220703 0.0001220703
vt 0.9998779 0.0001220703
vt 0.9998779 0.9998779
vt 0.0001220703 0.9998779
vt 0.0001220703 0.5001221
vt 0.9998779 0.5001221
vt 0.9998779 0.4998779
vt 0.0001220703 0.4998779

# Normal
vn 0 0 -1

# Groups (Count = 23)
g mesh_[00]_[00]
f  1/1/1  2/2/1  3/3/1  4/4/1 
f  2/1/1  5/2/1  6/3/1  3/4/1 
f  5/1/1  7/2/1  8/3/1  6/4/1 
f  7/1/1  9/2/1  10/3/1  8/4/1 
f  9/1/1  11/2/1  12/3/1  10/4/1 
f  11/1/1  13/2/1  14/3/1  12/4/1 
f  13/1/1  15/2/1  16/3/1  14/4/1 
f  15/1/1  17/2/1  18/3/1  16/4/1 
f  17/1/1  19/2/1  20/3/1  18/4/1 
f  19/1/1  21/2/1  22/3/1  20/4/1 
f  21/1/1  23/2/1  24/3/1  22/4/1 
f  23/1/1  25/2/1  26/3/1  24/4/1 
f  25/1/1  27/2/1  28/3/1  26/4/1 
f  27/1/1  29/2/1  30/3/1  28/4/1 
f  29/1/1  31/2/1  32/3/1  30/4/1 
f  33/1/1  34/2/1  2/3/1  1/4/1 
f  34/1/1  35/2/1  5/3/1  2/4/1 
f  35/1/1  36/2/1  7/3/1  5/4/1 
f  36/1/1  37/2/1  9/3/1  7/4/1 
f  37/1/1  38/2/1  11/3/1  9/4/1 
f  38/1/1  39/2/1  13/3/1  11/4/1 
f  40/1/1  41/2/1  17/3/1  15/4/1 
f  41/1/1  42/2/1  19/3/1  17/4/1 
f  42/1/1  43/2/1  21/3/1  19/4/1 
f  43/1/1  44/2/1  23/3/1  21/4/1 
f  44/1/1  45/2/1  25/3/1  23/4/1 
f  45/1/1  46/2/1  27/3/1  25/4/1 
f  46/1/1  47/2/1  29/3/1  27/4/1 
f  47/1/1  48/2/1  31/3/1  29/4/1 
f  49/1/1  50/2/1  34/3/1  33/4/1 
f  50/1/1  51/2/1  35/3/1  34/4/1 
f  51/1/1  52/2/1  36/3/1  35/4/1 
f  52/1/1  53/2/1  37/3/1  36/4/1 
f  53/1/1  54/2/1  38/3/1  37/4/1 
f  54/1/1  55/2/1  39/3/1  38/4/1 
f  55/1/1  56/2/1  40/3/1  39/4/1 
f  56/1/1  57/2/1  41/3/1  40/4/1 
f  58/1/1  59/2/1  43/3/1  42/4/1 
f  59/1/1  60/2/1  44/3/1  43/4/1 
f  60/1/1  61/2/1  45/3/1  44/4/1 
f  61/1/1  62/2/1  46/3/1  45/4/1 
f  62/1/1  63/2/1  47/3/1  46/4/1 
f  63/1/1  64/2/1  48/3/1  47/4/1 
f  65/1/1  66/2/1  50/3/1  49/4/1 
f  66/1/1  67/2/1  51/3/1  50/4/1 
f  67/1/1  68/2/1  52/3/1  51/4/1 
f  68/1/1  69/2/1  53/3/1  52/4/1 
f  69/1/1  70/2/1  54/3/1  53/4/1 
f  70/1/1  71/2/1  55/3/1  54/4/1 
f  72/1/1  73/2/1  57/3/1  56/4/1 
f  73/1/1  74/2/1  58/3/1  57/4/1 
f  74/1/1  75/2/1  59/3/1  58/4/1 
f  75/1/1  76/2/1  60/3/1  59/4/1 
f  76/1/1  77/2/1  61/3/1  60/4/1 
f  77/1/1  78/2/1  62/3/1  61/4/1 
f  78/1/1  79/2/1  63/3/1  62/4/1 
f  79/1/1  80/2/1  64/3/1  63/4/1 
f  81/1/1  82/2/1  66/3/1  65/4/1 
f  82/1/1  83/2/1  67/3/1  66/4/1 
f  83/1/1  84/2/1  68/3/1  67/4/1 
f  84/1/1  85/2/1  69/3/1  68/4/1 
f  85/1/1  86/2/1  70/3/1  69/4/1 
f  86/1/1  87/2/1  71/3/1  70/4/1 
f  87/1/1  88/2/1  72/3/1  71/4/1 
f  88/1/1  89/2/1  73/3/1  72/4/1 
f  89/1/1  90/2/1  74/3/1  73/4/1 
f  90/1/1  91/2/1  75/3/1  74/4/1 
f  91/1/1  92/2/1  76/3/1  75/4/1 
f  92/1/1  93/2/1  77/3/1  76/4/1 
f  93/1/1  94/2/1  78/3/1  77/4/1 
f  94/1/1  95/2/1  79/3/1  78/4/1 
f  95/1/1  96/2/1  80/3/1  79/4/1 
f  97/1/1  98/2/1  82/3/1  81/4/1 
f  98/1/1  99/2/1  83/3/1  82/4/1 
f  99/1/1  100/2/1  84/3/1  83/4/1 
f  100/1/1  101/2/1  85/3/1  84/4/1 
f  101/1/1  102/2/1  86/3/1  85/4/1 
f  102/1/1  103/2/1  87/3/1  86/4/1 
f  103/1/1  104/2/1  88/3/1  87/4/1 
f  104/1/1  105/2/1  89/3/1  88/4/1 
f  105/1/1  106/2/1  90/3/1  89/4/1 
f  106/1/1  107/2/1  91/3/1  90/4/1 
f  107/1/1  108/2/1  92/3/1  91/4/1 
f  108/1/1  109/2/1  93/3/1  92/4/1 
f  109/1/1  110/2/1  94/3/1  93/4/1 
f  110/1/1  111/2/1  95/3/1  94/4/1 
f  111/1/1  112/2/1  96/3/1  95/4/1 
f  113/1/1  114/2/1  98/3/1  97/4/1 
f  114/1/1  115/2/1  99/3/1  98/4/1 
f  115/1/1  116/2/1  100/3/1  99/4/1 
f  116/1/1  117/2/1  101/3/1  100/4/1 
f  118/1/1  119/2/1  103/3/1  102/4/1 
f  119/1/1  120/2/1  104/3/1  103/4/1 
f  120/1/1  121/2/1  105/3/1  104/4/1 
f  121/1/1  122/2/1  106/3/1  105/4/1 
f  122/1/1  123/2/1  107/3/1  106/4/1 
f  123/1/1  124/2/1  108/3/1  107/4/1 
f  124/1/1  125/2/1  109/3/1  108/4/1 
f  125/1/1  126/2/1  110/3/1  109/4/1 
f  126/1/1  127/2/1  111/3/1  110/4/1 
f  127/1/1  128/2/1  112/3/1  111/4/1 
f  129/1/1  130/2/1  114/3/1  113/4/1 
f  131/1/1  132/2/1  116/3/1  115/4/1 
f  132/1/1  133/2/1  117/3/1  116/4/1 
f  133/1/1  134/2/1  118/3/1  117/4/1 
f  134/1/1  135/2/1  119/3/1  118/4/1 
f  135/1/1  136/2/1  120/3/1  119/4/1 
f  136/1/1  137/2/1  121/3/1  120/4/1 
f  137/1/1  138/2/1  122/3/1  121/4/1 
f  138/1/1  139/2/1  123/3/1  122/4/1 
f  139/1/1  140/2/1  124/3/1  123/4/1 
f  140/1/1  141/2/1  125/3/1  124/4/1 
f  141/1/1  142/2/1  126/3/1  125/4/1 
f  142/1/1  143/2/1  127/3/1  126/4/1 
f  143/1/1  144/2/1  128/3/1  127/4/1 
f  145/1/1  146/2/1  130/3/1  129/4/1 
f  146/1/1  147/2/1  131/3/1  130/4/1 
f  147/1/1  148/2/1  132/3/1  131/4/1 
f  148/1/1  149/2/1  133/3/1  132/4/1 
f  149/1/1  150/2/1  134/3/1  133/4/1 
f  150/1/1  151/2/1  135/3/1  134/4/1 
f  151/1/1  152/2/1  136/3/1  135/4/1 
f  152/1/1  153/2/1  137/3/1  136/4/1 
f  154/1/1  155/2/1  139/3/1  138/4/1 
f  155/1/1  156/2/1  140/3/1  139/4/1 
f  156/1/1  157/2/1  141/3/1  140/4/1 
f  157/1/1  158/2/1  142/3/1  141/4/1 
f  158/1/1  159/2/1  143/3/1  142/4/1 
f  159/1/1  160/2/1  144/3/1  143/4/1 
f  161/1/1  162/2/1  146/3/1  145/4/1 
f  162/1/1  163/2/1  147/3/1  146/4/1 
f  163/1/1  164/2/1  148/3/1  147/4/1 
f  164/1/1  165/2/1  149/3/1  148/4/1 
f  165/1/1  166/2/1  150/3/1  149/4/1 
f  166/1/1  167/2/1  151/3/1  150/4/1 
f  167/1/1  168/2/1  152/3/1  151/4/1 
f  168/1/1  169/2/1  153/3/1  152/4/1 
f  169/1/1  170/2/1  154/3/1  153/4/1 
f  170/1/1  171/2/1  155/3/1  154/4/1 
f  171/1/1  172/2/1  156/3/1  155/4/1 
f  172/1/1  173/2/1  157/3/1  156/4/1 
f  173/1/1  174/2/1  158/3/1  157/4/1 
f  174/1/1  175/2/1  159/3/1  158/4/1 
f  175/1/1  176/2/1  160/3/1  159/4/1 
g mesh_[01]_[14]
f  7/1/1  9/2/1  10/3/1  8/4/1 
f  15/1/1  17/2/1  18/3/1  16/4/1 
f  36/1/1  37/2/1  9/3/1  7/4/1 
f  40/1/1  41/2/1  17/3/1  15/4/1 
f  51/1/1  52/2/1  36/3/1  35/4/1 
f  52/1/1  53/2/1  37/3/1  36/4/1 
f  56/1/1  57/2/1  41/3/1  40/4/1 
f  67/1/1  68/2/1  52/3/1  51/4/1 
f  68/1/1  69/2/1  53/3/1  52/4/1 
f  72/1/1  73/2/1  57/3/1  56/4/1 
f  88/1/1  89/2/1  73/3/1  72/4/1 
f  92/1/1  93/2/1  77/3/1  76/4/1 
f  104/1/1  105/2/1  89/3/1  88/4/1 
f  108/1/1  109/2/1  93/3/1  92/4/1 
g mesh_[01]_[12]
f  81/1/1  82/2/1  66/3/1  65/4/1 
f  82/1/1  83/2/1  67/3/1  66/4/1 
f  83/1/1  84/2/1  68/3/1  67/4/1 
f  121/1/1  122/2/1  106/3/1  105/4/1 
f  122/1/1  123/2/1  107/3/1  106/4/1 
f  123/1/1  124/2/1  108/3/1  107/4/1 
f  124/1/1  125/2/1  109/3/1  108/4/1 
f  125/1/1  126/2/1  110/3/1  109/4/1 
f  126/1/1  127/2/1  111/3/1  110/4/1 
f  127/1/1  128/2/1  112/3/1  111/4/1 
g mesh_[01]_[13]
f  84/1/1  85/2/1  69/3/1  68/4/1 
g mesh_[01]_[17]
f  120/1/1  121/2/1  105/3/1  104/4/1 
g mesh_[02]_[16]
f  83/1/1  84/2/1  68/3/1  67/4/1 
g mesh_[02]_[17]
f  124/1/1  125/2/1  109/3/1  108/4/1 
g mesh_[03]_[18]
f  1/1/1  2/2/1  3/3/1  4/4/1 
f  65/1/1  66/2/1  50/3/1  49/4/1 
f  116/1/1  117/2/1  101/3/1  100/4/1 
f  143/1/1  144/2/1  128/3/1  127/4/1 
g mesh_[03]_[01]
f  34/1/1  35/2/1  5/3/1  2/4/1 
f  39/1/1  40/2/1  15/3/1  13/4/1 
f  57/1/1  58/2/1  42/3/1  41/4/1 
f  63/1/1  64/2/1  48/3/1  47/4/1 
f  71/1/1  72/2/1  56/3/1  55/4/1 
f  109/1/1  110/2/1  94/3/1  93/4/1 
f  117/1/1  118/2/1  102/3/1  101/4/1 
f  130/1/1  131/2/1  115/3/1  114/4/1 
f  153/1/1  154/2/1  138/3/1  137/4/1 
f  159/1/1  160/2/1  144/3/1  143/4/1 
g mesh_[04]_[19]
f  9/1/1  11/2/1  12/3/1  10/4/1 
f  166/1/1  167/2/1  151/3/1  150/4/1 
g mesh_[04]_[21]
f  42/1/1  43/2/1  21/3/1  19/4/1 
f  46/1/1  47/2/1  29/3/1  27/4/1 
f  58/1/1  59/2/1  43/3/1  42/4/1 
f  62/1/1  63/2/1  47/3/1  46/4/1 
f  86/1/1  87/2/1  71/3/1  70/4/1 
f  154/1/1  155/2/1  139/3/1  138/4/1 
g mesh_[04]_[20]
f  43/1/1  44/2/1  23/3/1  21/4/1 
f  44/1/1  45/2/1  25/3/1  23/4/1 
f  45/1/1  46/2/1  27/3/1  25/4/1 
f  49/1/1  50/2/1  34/3/1  33/4/1 
f  73/1/1  74/2/1  58/3/1  57/4/1 
f  74/1/1  75/2/1  59/3/1  58/4/1 
f  78/1/1  79/2/1  63/3/1  62/4/1 
f  79/1/1  80/2/1  64/3/1  63/4/1 
f  89/1/1  90/2/1  74/3/1  73/4/1 
f  95/1/1  96/2/1  80/3/1  79/4/1 
f  105/1/1  106/2/1  90/3/1  89/4/1 
f  106/1/1  107/2/1  91/3/1  90/4/1 
f  110/1/1  111/2/1  95/3/1  94/4/1 
f  111/1/1  112/2/1  96/3/1  95/4/1 
f  174/1/1  175/2/1  159/3/1  158/4/1 
g mesh_[05]_[09]
f  51/1/1  52/2/1  36/3/1  35/4/1 
g mesh_[06]_[05]
f  54/1/1  55/2/1  39/3/1  38/4/1 
f  114/1/1  115/2/1  99/3/1  98/4/1 
f  120/1/1  121/2/1  105/3/1  104/4/1 
f  172/1/1  173/2/1  157/3/1  156/4/1 
g mesh_[06]_[03]
f  85/1/1  86/2/1  70/3/1  69/4/1 
g mesh_[06]_[07]
f  164/1/1  165/2/1  149/3/1  148/4/1 
g mesh_[07]_[11]
f  38/5/1  39/6/1  13/3/1  11/4/1 
f  54/1/1  55/2/1  39/7/1  38/8/1 
f  148/5/1  149/6/1  133/3/1  132/4/1 
f  164/1/1  165/2/1  149/7/1  148/8/1 
g mesh_[07]_[06]
f  69/5/1  70/6/1  54/3/1  53/4/1 
f  85/1/1  86/2/1  70/7/1  69/8/1 
f  156/5/1  157/6/1  141/3/1  140/4/1 
f  172/1/1  173/2/1  157/7/1  156/8/1 
g mesh_[07]_[04]
f  98/5/1  99/6/1  83/3/1  82/4/1 
f  104/5/1  105/6/1  89/3/1  88/4/1 
f  114/1/1  115/2/1  99/7/1  98/8/1 
f  120/1/1  121/2/1  105/7/1  104/8/1 
g mesh_[08]_[02]
f  35/5/1  36/6/1  7/3/1  5/4/1 
f  51/1/1  52/2/1  36/7/1  35/8/1 
g mesh_[08]_[08]
f  76/5/1  77/6/1  61/3/1  60/4/1 
f  92/1/1  93/2/1  77/7/1  76/8/1 
g mesh_[09]_[22]
f  9/1/1  11/2/1  12/3/1  10/4/1 
f  35/1/1  36/2/1  7/3/1  5/4/1 
f  42/1/1  43/2/1  21/3/1  19/4/1 
f  43/1/1  44/2/1  23/3/1  21/4/1 
f  44/1/1  45/2/1  25/3/1  23/4/1 
f  45/1/1  46/2/1  27/3/1  25/4/1 
f  46/1/1  47/2/1  29/3/1  27/4/1 
f  49/1/1  50/2/1  34/3/1  33/4/1 
f  51/1/1  52/2/1  36/3/1  35/4/1 
f  58/1/1  59/2/1  43/3/1  42/4/1 
f  62/1/1  63/2/1  47/3/1  46/4/1 
f  73/1/1  74/2/1  58/3/1  57/4/1 
f  74/1/1  75/2/1  59/3/1  58/4/1 
f  76/1/1  77/2/1  61/3/1  60/4/1 
f  78/1/1  79/2/1  63/3/1  62/4/1 
f  79/1/1  80/2/1  64/3/1  63/4/1 
f  86/1/1  87/2/1  71/3/1  70/4/1 
f  89/1/1  90/2/1  74/3/1  73/4/1 
f  92/1/1  93/2/1  77/3/1  76/4/1 
f  95/1/1  96/2/1  80/3/1  79/4/1 
f  105/1/1  106/2/1  90/3/1  89/4/1 
f  106/1/1  107/2/1  91/3/1  90/4/1 
f  110/1/1  111/2/1  95/3/1  94/4/1 
f  111/1/1  112/2/1  96/3/1  95/4/1 
f  154/1/1  155/2/1  139/3/1  138/4/1 
f  166/1/1  167/2/1  151/3/1  150/4/1 
f  174/1/1  175/2/1  159/3/1  158/4/1 
g mesh_[09]_[23]
f  54/1/1  55/2/1  39/3/1  38/4/1 
f  85/1/1  86/2/1  70/3/1  69/4/1 
f  114/1/1  115/2/1  99/3/1  98/4/1 
f  120/1/1  121/2/1  105/3/1  104/4/1 
f  164/1/1  165/2/1  149/3/1  148/4/1 
f  172/1/1  173/2/1  157/3/1  156/4/1 
